# xmcd
#
# Track frame offsets:
#	150
#	7373
#	19749
#	29885
#	46696
#	69651
#	102506
#	118481
#
# Disc length: 1935 seconds
#
# Revision: 0
# Processed by: cddbd v1.5.2PL0 Copyright (c) Steve Scherf et al.
# Submitted via: dBpowerAMP V4.0
#
DISCID=75078d08
DTITLE=Roy Buchanan - Roy Buchanan
DYEAR=1972
DGENRE=
TTITLE0=01Sweet Dreams
TTITLE1=02I Am a Lonesome Fugitive
TTITLE2=03Cajun
TTITLE3=04John's Blues
TTITLE4=05Haunted House
TTITLE5=06Pete's Blues
TTITLE6=07The Messiah Will Come Again
TTITLE7=08Hey, Good Lookin'
EXTD=
EXTT0=
EXTT1=
EXTT2=
EXTT3=
EXTT4=
EXTT5=
EXTT6=
EXTT7=
PLAYORDER=
